# Blender v2.66 (sub 0) OBJ File: ''
# www.blender.org
mtllib ground.mtl
o Cube.001
v -45.930599 -5.087269 45.930607
v -45.930607 -5.087254 -45.930599
v 45.930603 -5.087254 -45.930595
v -45.930618 -4.921358 45.930588
v 45.930603 -4.921358 45.930599
v 45.930614 -4.921342 -45.930592
v -45.930576 -4.921342 -45.930630
v 45.930588 -5.087269 45.930614
vt 0.534698 0.465302
vt 0.534698 -45.465302
vt 46.465302 -45.465294
vt 0.534689 0.465292
vt 46.465302 0.465302
vt 46.465309 -45.465294
vt 0.956369 0.465302
vt 1.039325 0.465292
vt 0.956369 -45.465302
vt 0.534698 0.956369
vt 0.534714 1.039325
vt 46.465302 0.956369
vt 0.956369 0.534704
vt 1.039325 0.534706
vt 1.039325 46.465302
vt 0.534689 0.039325
vt 0.534698 -0.043631
vt 46.465302 0.039325
vt 0.465292 0.465309
vt -45.465302 0.465302
vt 0.465303 -45.465294
vt 0.534714 0.534683
vt 0.534689 46.465294
vt 46.465309 0.534706
vt 0.039325 0.465292
vt 0.039325 -45.465317
vt -0.043631 -45.465302
vt 0.534714 0.039325
vt 46.465309 0.039325
vt 46.465302 -0.043631
vt 0.956369 0.465309
vt 0.956369 -45.465294
vt 1.039325 0.465302
vt 46.465294 0.956369
vt 46.465302 1.039325
vn 0.000000 -1.000000 -0.000000
vn -0.000000 1.000000 0.000000
vn -1.000000 -0.000115 0.000000
vn 0.000000 -0.000184 -1.000000
vn 1.000000 -0.000069 0.000000
vn -0.000000 0.000115 1.000000
vn -1.000000 0.000184 -0.000000
vn 0.000000 0.000023 -1.000000
vn 1.000000 -0.000092 0.000000
vn -0.000000 0.000092 1.000000
usemtl Material.001
s off
f 1/1/1 2/2/1 3/3/1
f 4/4/2 5/5/2 6/6/2
f 1/7/3 4/8/3 2/9/3
f 2/10/4 7/11/4 3/12/4
f 3/13/5 6/14/5 5/15/5
f 4/16/6 1/17/6 5/18/6
f 8/19/1 1/20/1 3/21/1
f 7/22/2 4/23/2 6/24/2
f 4/25/7 7/26/7 2/27/7
f 7/28/8 6/29/8 3/30/8
f 8/31/9 3/32/9 5/33/9
f 1/10/10 8/34/10 5/35/10
